<?xml version="1.0" encoding="iso-8859-1"?>
<!-- Generator: Adobe Illustrator 19.0.0, SVG Export Plug-In . SVG Version: 6.00 Build 0)  -->
<svg version="1.1" id="Capa_1" xmlns="http://www.w3.org/2000/svg" xmlns:xlink="http://www.w3.org/1999/xlink" x="0px" y="0px"
	 viewBox="0 0 480.008 480.008" style="enable-background:new 0 0 480.008 480.008;" xml:space="preserve">
<g>
	<g>
		<path d="M476.07,113.121c-2.126-1.254-4.711-1.456-7.006-0.549l-0.008-0.008l-464,184c-4.108,1.627-6.119,6.276-4.491,10.384
			c0.607,1.533,1.673,2.84,3.051,3.744l87.504,57.424l53.736,107.472c0.056,0.12,0.152,0.2,0.216,0.312
			c0.764,1.275,1.837,2.337,3.12,3.088c0.112,0.064,0.192,0.152,0.304,0.208c0.112,0.056,0.24,0,0.36,0.08
			c0.989,0.457,2.062,0.705,3.152,0.728c0.619,0,1.236-0.07,1.84-0.208c0.128,0,0.232-0.112,0.352-0.152
			c0.425-0.14,0.837-0.317,1.232-0.528c0.409-0.177,0.802-0.389,1.176-0.632c0.096-0.072,0.208-0.088,0.304-0.168l46.736-36.352
			l56,36.728c1.296,0.85,2.81,1.306,4.36,1.312c0.609,0.001,1.215-0.069,1.808-0.208c2.131-0.494,3.966-1.838,5.08-3.72l208-352
			C481.141,120.27,479.875,115.366,476.07,113.121z M144.008,438.108l-26.264-52.504l26.264,17.216V438.108z M160.008,455.644
			v-42.32l29.512,19.368L160.008,455.644z M261.384,460.716l-53.72-35.256l-41.472-27.2L413.28,182.028l-10.536-12.048
			L152.296,389.124l-42.36-27.8l174.008-98.36l-7.872-13.92L94.888,351.452l-69.6-45.688l428-169.704L261.384,460.716z"/>
	</g>
</g>
<g>
	<g>
		<path d="M388.528,72.284l-10.616,12c3.8,3.376,7.552,6.952,11.152,10.648l11.464-11.2
			C396.656,79.732,392.624,75.908,388.528,72.284z"/>
	</g>
</g>
<g>
	<g>
		<path d="M187.208,22.276c-5.352,1.288-10.72,2.8-16,4.488l4.896,15.2c4.888-1.536,9.88-2.936,14.848-4.136L187.208,22.276z"/>
	</g>
</g>
<g>
	<g>
		<path d="M219.896,16.892c-5.488,0.496-11.016,1.184-16.448,2.088l2.592,15.784c5.04-0.8,10.176-1.48,15.28-1.928L219.896,16.892z"
			/>
	</g>
</g>
<g>
	<g>
		<path d="M74.688,88.844c-3.696,4-7.32,8.296-10.744,12.656l12.576,9.888c3.184-4.04,6.536-7.984,9.968-11.728L74.688,88.844z"/>
	</g>
</g>
<g>
	<g>
		<path d="M98.784,66.116c-4.272,3.472-8.472,7.152-12.472,10.92l10.984,11.64c3.72-3.504,7.616-6.912,11.584-10.152L98.784,66.116z
			"/>
	</g>
</g>
<g>
	<g>
		<path d="M18.408,206.988c-0.8,5.448-1.416,10.984-1.816,16.472l16,1.168c0.368-5.104,0.936-10.248,1.68-15.312L18.408,206.988z"/>
	</g>
</g>
<g>
	<g>
		<path d="M240.008,16.004h-3.536l0.216,16h3.32c4.059,0,8.091,0.115,12.096,0.344l0.928-16
			C248.723,16.119,244.381,16.004,240.008,16.004z"/>
	</g>
</g>
<g>
	<g>
		<path d="M125.968,47.204c-4.712,2.792-9.408,5.816-13.944,8.976l9.16,13.088c4.208-2.936,8.568-5.744,12.944-8.336L125.968,47.204
			z"/>
	</g>
</g>
<g>
	<g>
		<path d="M32.008,240.004h-16c0,5.528,0.2,11.112,0.6,16.568l16-1.168C32.192,250.348,32.008,245.172,32.008,240.004z"/>
	</g>
</g>
<g>
	<g>
		<path d="M269.496,17.932l-2.056,15.864c5.008,0.664,10.128,1.528,15.2,2.576l3.2-15.672
			C280.384,19.572,274.88,18.644,269.496,17.932z"/>
	</g>
</g>
<g>
	<g>
		<path d="M37.752,143.692c-2.4,4.96-4.584,10.096-6.584,15.248l14.912,5.784c1.816-4.776,3.872-9.52,6.072-14.128L37.752,143.692z"
			/>
	</g>
</g>
<g>
	<g>
		<path d="M25.704,174.636c-1.6,5.24-3.024,10.632-4.24,16l15.608,3.512c1.128-4.976,2.448-9.976,3.936-14.84L25.704,174.636z"/>
	</g>
</g>
<g>
	<g>
		<path d="M54.168,114.9c-3.096,4.6-6.04,9.344-8.76,14.096l13.888,7.936c2.528-4.416,5.264-8.816,8.144-13.096L54.168,114.9z"/>
	</g>
</g>
<g>
	<g>
		<path d="M155.632,32.428c-5.072,2.064-10.152,4.36-15.096,6.816l7.104,14.36c4.592-2.304,9.32-4.432,14.032-6.36L155.632,32.428z"
			/>
	</g>
</g>
<g>
	<g>
		<path d="M362.176,52.188l-8.736,13.416c4.28,2.808,8.512,5.8,12.584,8.904l9.704-12.72
			C371.344,58.444,366.784,55.228,362.176,52.188z"/>
	</g>
</g>
<g>
	<g>
		<path d="M302.04,24.7l-4.432,15.376c4.928,1.424,9.856,3.032,14.616,4.8l5.6-15C312.68,27.972,307.368,26.22,302.04,24.7z"/>
	</g>
</g>
<g>
	<g>
		<path d="M411.648,96.044l-12.256,10.28c2.837,3.381,5.565,6.848,8.184,10.4l12.872-9.48
			C417.632,103.441,414.698,99.708,411.648,96.044z"/>
	</g>
</g>
<g>
	<g>
		<path d="M333.12,36.212l-6.664,14.544c4.672,2.144,9.304,4.448,13.768,6.936l7.72-14.016
			C343.144,41.028,338.152,38.516,333.12,36.212z"/>
	</g>
</g>
<g>
	<g>
		<path d="M393.536,380.332c-3.464,3.808-7.128,7.496-10.8,10.984l10.976,11.64c4-3.76,7.904-7.736,11.64-11.824L393.536,380.332z"
			/>
	</g>
</g>
<g>
	<g>
		<path d="M412.584,356.148c-2.872,4.272-5.928,8.448-9.072,12.432l12.552,9.92c3.392-4.304,6.688-8.8,9.784-13.416L412.584,356.148
			z"/>
	</g>
</g>
<g>
	<g>
		<path d="M345.896,419.044c-4.384,2.624-8.936,5.104-13.544,7.36l7.128,14.328c4.96-2.472,9.856-5.136,14.568-7.92L345.896,419.044
			z"/>
	</g>
</g>
<g>
	<g>
		<path d="M371.152,401.46c-3.944,3.232-8.112,6.352-12.312,9.28l9.168,13.12c4.52-3.16,8.976-6.512,13.24-9.976L371.152,401.46z"/>
	</g>
</g>
<g>
	<g>
		<path d="M427.856,329.428c-2.184,4.592-4.576,9.184-7.128,13.648l13.888,7.936c2.744-4.8,5.336-9.76,7.688-14.696L427.856,329.428
			z"/>
	</g>
</g>
<g>
	<g>
		<path d="M448.008,240.004c0,5.144-0.184,10.32-0.56,15.392l16,1.168c0.4-5.464,0.6-11.032,0.6-16.56H448.008z"/>
	</g>
</g>
<g>
	<g>
		<path d="M445.752,270.708c-0.744,5.08-1.696,10.168-2.808,15.144l15.608,3.512c1.208-5.368,2.224-10.848,3.032-16.312
			L445.752,270.708z"/>
	</g>
</g>
<g>
	<g>
		<path d="M439,300.732c-1.488,4.872-3.176,9.776-5.032,14.56l14.912,5.784c2-5.144,3.824-10.4,5.424-15.672L439,300.732z"/>
	</g>
</g>
<g>
	<g>
		<path d="M472.008,32.004c-13.255,0-24-10.745-24-24c0-4.418-3.582-8-8-8s-8,3.582-8,8c0,13.255-10.745,24-24,24
			c-4.418,0-8,3.582-8,8s3.582,8,8,8c13.255,0,24,10.745,24,24c0,4.418,3.582,8,8,8s8-3.582,8-8c0-13.255,10.745-24,24-24
			c4.418,0,8-3.582,8-8S476.426,32.004,472.008,32.004z M440.008,48.004c-2.278-3.029-4.971-5.722-8-8c3.029-2.278,5.722-4.971,8-8
			c2.278,3.029,4.971,5.722,8,8C444.979,42.282,442.286,44.975,440.008,48.004z"/>
	</g>
</g>
<g>
	<g>
		<path d="M208.008,160.004c-13.255,0-24-10.745-24-24c0-4.418-3.582-8-8-8s-8,3.582-8,8c0,13.255-10.745,24-24,24
			c-4.418,0-8,3.582-8,8s3.582,8,8,8c13.255,0,24,10.745,24,24c0,4.418,3.582,8,8,8s8-3.582,8-8c0-13.255,10.745-24,24-24
			c4.418,0,8-3.582,8-8S212.426,160.004,208.008,160.004z M176.008,176.004c-2.278-3.029-4.971-5.722-8-8
			c3.029-2.278,5.722-4.971,8-8c2.278,3.029,4.971,5.722,8,8C180.979,170.282,178.286,172.975,176.008,176.004z"/>
	</g>
</g>
<g>
</g>
<g>
</g>
<g>
</g>
<g>
</g>
<g>
</g>
<g>
</g>
<g>
</g>
<g>
</g>
<g>
</g>
<g>
</g>
<g>
</g>
<g>
</g>
<g>
</g>
<g>
</g>
<g>
</g>
</svg>
